<svg xmlns="http://www.w3.org/2000/svg" width="1200" height="630" viewBox="0 0 1200 630">
  <defs>
    <linearGradient id="hero" x1="140" x2="920" y1="80" y2="520" gradientUnits="userSpaceOnUse">
      <stop stop-color="#FB923C" />
      <stop offset="1" stop-color="#2563EB" />
    </linearGradient>
    <radialGradient id="glow" cx="0" cy="0" r="1" gradientTransform="translate(260 120) rotate(34.993) scale(686.34 600.241)" gradientUnits="userSpaceOnUse">
      <stop stop-color="#F97316" stop-opacity=".25" />
      <stop offset="1" stop-color="#0A0A0F" stop-opacity="0" />
    </radialGradient>
  </defs>
  <rect width="1200" height="630" rx="40" fill="#0A0A0F" />
  <rect width="1200" height="630" rx="40" fill="url(#glow)" />
  <g opacity=".18">
    <path d="M0 90h1200M0 180h1200M0 270h1200M0 360h1200M0 450h1200M0 540h1200" stroke="#fff" />
    <path d="M150 0v630M300 0v630M450 0v630M600 0v630M750 0v630M900 0v630M1050 0v630" stroke="#fff" />
  </g>
  <rect x="110" y="110" width="980" height="410" rx="36" fill="#10131B" stroke="rgba(255,255,255,0.08)" />
  <rect x="170" y="168" width="92" height="92" rx="28" fill="url(#hero)" />
  <text x="218" y="225" fill="#fff" font-family="Syne, Arial, sans-serif" font-size="52" font-weight="700" text-anchor="middle">D</text>
  <text x="170" y="318" fill="#fff" font-family="Syne, Arial, sans-serif" font-size="58" font-weight="800">D27 Docs</text>
  <text x="170" y="388" fill="#F8FAFC" font-family="Syne, Arial, sans-serif" font-size="42" font-weight="700">
    Del documento de tu cliente
  </text>
  <text x="170" y="438" fill="#FB923C" font-family="Syne, Arial, sans-serif" font-size="42" font-weight="700">
    a la contabilidad, automáticamente.
  </text>
  <text x="170" y="486" fill="rgba(255,255,255,0.66)" font-family="DM Sans, Arial, sans-serif" font-size="28">
    Automatización documental y contable para asesorías y gestorías.
  </text>
</svg>
