<svg xmlns="http://www.w3.org/2000/svg" viewBox="-80 -90 160 180" width="400" height="400">
  <path fill="none" stroke="#fff" stroke-width="4" stroke-linecap="round" stroke-linejoin="round" d="M-34,-64 C-42,-64 -42,64 -42,64 C-42,72 -34,72 -34,72 L34,72 C42,72 42,64 42,64 L42,-44 L22,-64 Z"/>
  <path fill="none" stroke="#fff" stroke-width="3" stroke-linecap="round" stroke-linejoin="round" d="M22,-64 C22,-52 22,-44 22,-44 L42,-44"/>
  <path fill="none" stroke="#fff" stroke-opacity="0.35" stroke-width="1.5" stroke-linecap="round" d="M24,-60 C30,-54 36,-48 40,-44"/>
  <line stroke="#fff" stroke-width="2.5" stroke-linecap="round" x1="-26" y1="-20" x2="18" y2="-20"/>
  <line stroke="#fff" stroke-width="2.5" stroke-linecap="round" x1="-26" y1="-4" x2="24" y2="-4"/>
  <line stroke="#fff" stroke-width="2.5" stroke-linecap="round" x1="-26" y1="12" x2="14" y2="12"/>
  <line stroke="#fff" stroke-width="2.5" stroke-linecap="round" x1="-26" y1="28" x2="20" y2="28"/>
  <line stroke="#fff" stroke-opacity="0.3" stroke-width="1.5" stroke-linecap="round" x1="-34" y1="56" x2="34" y2="56"/>
  <line stroke="#fff" stroke-opacity="0.3" stroke-width="1.5" stroke-linecap="round" x1="-34" y1="64" x2="34" y2="64"/>
  <line stroke="#fff" stroke-width="2.2" stroke-linecap="round" x1="-56" y1="-52" x2="-48" y2="-48"/>
  <line stroke="#fff" stroke-width="2.2" stroke-linecap="round" x1="-58" y1="-32" x2="-50" y2="-32"/>
  <line stroke="#fff" stroke-width="2.2" stroke-linecap="round" x1="52" y1="52" x2="46" y2="46"/>
</svg>