<svg xmlns="http://www.w3.org/2000/svg" viewBox="-70 -80 140 170" width="400" height="400">
  <rect fill="none" stroke="#fff" stroke-width="4" stroke-linecap="round" stroke-linejoin="round" x="-42" y="-62" width="84" height="136" rx="18"/>
  <rect fill="none" stroke="#fff" stroke-width="2.2" stroke-linecap="round" stroke-linejoin="round" x="-30" y="-50" width="16" height="16" rx="6"/>
  <path fill="none" stroke="#fff" stroke-width="2.8" stroke-linecap="round" stroke-linejoin="round" d="M-27,-42 L-22,-36 L-14,-48"/>
  <line stroke="#fff" stroke-width="2.2" stroke-linecap="round" x1="-8" y1="-42" x2="24" y2="-42"/>
  <rect fill="none" stroke="#fff" stroke-width="2.2" stroke-linecap="round" stroke-linejoin="round" x="-30" y="-24" width="16" height="16" rx="6"/>
  <path fill="none" stroke="#fff" stroke-width="2.8" stroke-linecap="round" stroke-linejoin="round" d="M-27,-16 L-22,-10 L-14,-22"/>
  <line stroke="#fff" stroke-width="2.2" stroke-linecap="round" x1="-8" y1="-16" x2="24" y2="-16"/>
  <rect fill="none" stroke="#fff" stroke-width="2.2" stroke-linecap="round" stroke-linejoin="round" x="-30" y="2" width="16" height="16" rx="6"/>
  <line stroke="#fff" stroke-width="2.2" stroke-linecap="round" x1="-8" y1="10" x2="24" y2="10"/>
  <rect fill="none" stroke="#fff" stroke-width="2.2" stroke-linecap="round" stroke-linejoin="round" x="-30" y="28" width="16" height="16" rx="6"/>
  <line stroke="#fff" stroke-width="2.2" stroke-linecap="round" x1="-8" y1="36" x2="16" y2="36"/>
  <line stroke="#fff" stroke-opacity="0.3" stroke-width="1.5" stroke-linecap="round" x1="-34" y1="56" x2="34" y2="56"/>
  <line stroke="#fff" stroke-width="2.2" stroke-linecap="round" x1="54" y1="-56" x2="46" y2="-52"/>
  <line stroke="#fff" stroke-width="2.2" stroke-linecap="round" x1="56" y1="-36" x2="48" y2="-36"/>
</svg>