<svg xmlns="http://www.w3.org/2000/svg" viewBox="-65 -75 130 150" width="400" height="400">
  <rect fill="none" stroke="#fff" stroke-width="4" stroke-linecap="round" stroke-linejoin="round" x="-46" y="-52" width="92" height="104" rx="18"/>
  <path fill="#fff" d="M-46,-52 C-46,-62 -38,-62 -28,-62 L28,-62 C38,-62 46,-52 46,-52 L46,-26 L-46,-26 Z"/>
  <rect fill="#fff" x="-46" y="-38" width="92" height="12"/>
  <rect fill="none" stroke="#fff" stroke-width="4" stroke-linecap="round" stroke-linejoin="round" x="-24" y="-62" width="8" height="20" rx="4"/>
  <rect fill="none" stroke="#fff" stroke-width="4" stroke-linecap="round" stroke-linejoin="round" x="16" y="-62" width="8" height="20" rx="4"/>
  <line stroke="#fff" stroke-opacity="0.3" stroke-width="1.2" stroke-linecap="round" x1="-34" y1="-10" x2="34" y2="-10"/>
  <line stroke="#fff" stroke-opacity="0.3" stroke-width="1.2" stroke-linecap="round" x1="-34" y1="8" x2="34" y2="8"/>
  <line stroke="#fff" stroke-opacity="0.3" stroke-width="1.2" stroke-linecap="round" x1="-34" y1="26" x2="34" y2="26"/>
  <line stroke="#fff" stroke-opacity="0.3" stroke-width="1.2" stroke-linecap="round" x1="-12" y1="-10" x2="-12" y2="40"/>
  <line stroke="#fff" stroke-opacity="0.3" stroke-width="1.2" stroke-linecap="round" x1="12" y1="-10" x2="12" y2="40"/>
  <rect fill="none" stroke="#fff" stroke-width="2.8" stroke-linecap="round" stroke-linejoin="round" x="-10" y="-8" width="22" height="18" rx="7"/>
  <line stroke="#fff" stroke-width="2.2" stroke-linecap="round" x1="58" y1="-46" x2="50" y2="-42"/>
  <line stroke="#fff" stroke-width="2.2" stroke-linecap="round" x1="60" y1="-26" x2="52" y2="-26"/>
</svg>