<svg xmlns="http://www.w3.org/2000/svg" viewBox="-70 -80 140 160" width="400" height="400">
  <path fill="none" stroke="#fff" stroke-width="3.5" stroke-linecap="round" stroke-linejoin="round" d="M-46,-60 C-46,-66 -52,-66 -52,-60 L-52,54 C-52,60 -46,60 -40,60 L46,60 C52,60 52,54 52,54"/>
  <path fill="none" stroke="#fff" stroke-width="3" stroke-linecap="round" stroke-linejoin="round" d="M-58,-52 L-52,-64 L-46,-52"/>
  <path fill="none" stroke="#fff" stroke-width="3" stroke-linecap="round" stroke-linejoin="round" d="M44,66 L56,60 L44,54"/>
  <rect fill="none" stroke="#fff" stroke-width="3" stroke-linecap="round" stroke-linejoin="round" x="-38" y="12" width="18" height="42" rx="6"/>
  <line stroke="#fff" stroke-opacity="0.3" stroke-width="1.3" stroke-linecap="round" x1="-34" y1="22" x2="-24" y2="22"/>
  <line stroke="#fff" stroke-opacity="0.3" stroke-width="1.3" stroke-linecap="round" x1="-34" y1="34" x2="-24" y2="34"/>
  <line stroke="#fff" stroke-opacity="0.3" stroke-width="1.3" stroke-linecap="round" x1="-34" y1="46" x2="-24" y2="46"/>
  <rect fill="none" stroke="#fff" stroke-width="3" stroke-linecap="round" stroke-linejoin="round" x="-12" y="-18" width="18" height="72" rx="6"/>
  <line stroke="#fff" stroke-opacity="0.3" stroke-width="1.3" stroke-linecap="round" x1="-8" y1="-8" x2="2" y2="-8"/>
  <line stroke="#fff" stroke-opacity="0.3" stroke-width="1.3" stroke-linecap="round" x1="-8" y1="6" x2="2" y2="6"/>
  <line stroke="#fff" stroke-opacity="0.3" stroke-width="1.3" stroke-linecap="round" x1="-8" y1="20" x2="2" y2="20"/>
  <line stroke="#fff" stroke-opacity="0.3" stroke-width="1.3" stroke-linecap="round" x1="-8" y1="34" x2="2" y2="34"/>
  <rect fill="none" stroke="#fff" stroke-width="3" stroke-linecap="round" stroke-linejoin="round" x="14" y="-46" width="18" height="100" rx="6"/>
  <line stroke="#fff" stroke-opacity="0.3" stroke-width="1.3" stroke-linecap="round" x1="18" y1="-34" x2="28" y2="-34"/>
  <line stroke="#fff" stroke-opacity="0.3" stroke-width="1.3" stroke-linecap="round" x1="18" y1="-18" x2="28" y2="-18"/>
  <line stroke="#fff" stroke-opacity="0.3" stroke-width="1.3" stroke-linecap="round" x1="18" y1="-2" x2="28" y2="-2"/>
  <line stroke="#fff" stroke-opacity="0.3" stroke-width="1.3" stroke-linecap="round" x1="18" y1="14" x2="28" y2="14"/>
  <line stroke="#fff" stroke-width="2.2" stroke-linecap="round" x1="46" y1="-52" x2="38" y2="-48"/>
  <line stroke="#fff" stroke-width="2.2" stroke-linecap="round" x1="48" y1="-32" x2="40" y2="-32"/>
</svg>