<svg xmlns="http://www.w3.org/2000/svg" viewBox="-80 -80 160 160" width="400" height="400">
  <circle fill="none" stroke="#fff" stroke-width="3.5" cx="0" cy="0" r="26"/>
  <circle fill="none" stroke="#fff" stroke-width="2.5" cx="0" cy="0" r="12"/>
  <rect fill="none" stroke="#fff" stroke-width="2.5" stroke-linecap="round" stroke-linejoin="round" x="-7" y="-58" width="14" height="18" rx="6"/>
  <rect fill="none" stroke="#fff" stroke-width="2.5" stroke-linecap="round" stroke-linejoin="round" x="-7" y="40" width="14" height="18" rx="6"/>
  <rect fill="none" stroke="#fff" stroke-width="2.5" stroke-linecap="round" stroke-linejoin="round" x="40" y="-7" width="18" height="14" rx="6"/>
  <rect fill="none" stroke="#fff" stroke-width="2.5" stroke-linecap="round" stroke-linejoin="round" x="-58" y="-7" width="18" height="14" rx="6"/>
  <rect fill="none" stroke="#fff" stroke-width="2.5" stroke-linecap="round" stroke-linejoin="round" transform="rotate(45)" x="-7" y="-58" width="14" height="18" rx="6"/>
  <rect fill="none" stroke="#fff" stroke-width="2.5" stroke-linecap="round" stroke-linejoin="round" transform="rotate(45)" x="-7" y="40" width="14" height="18" rx="6"/>
  <rect fill="none" stroke="#fff" stroke-width="2.5" stroke-linecap="round" stroke-linejoin="round" transform="rotate(45)" x="40" y="-7" width="18" height="14" rx="6"/>
  <rect fill="none" stroke="#fff" stroke-width="2.5" stroke-linecap="round" stroke-linejoin="round" transform="rotate(45)" x="-58" y="-7" width="18" height="14" rx="6"/>
  <line stroke="#fff" stroke-opacity="0.3" stroke-width="1.3" stroke-linecap="round" x1="-9" y1="-5" x2="9" y2="-5"/>
  <line stroke="#fff" stroke-opacity="0.3" stroke-width="1.3" stroke-linecap="round" x1="-9" y1="3" x2="9" y2="3"/>
  <line stroke="#fff" stroke-width="2.2" stroke-linecap="round" x1="-76" y1="-54" x2="-68" y2="-50"/>
  <line stroke="#fff" stroke-width="2.2" stroke-linecap="round" x1="76" y1="54" x2="68" y2="50"/>
</svg>