<svg xmlns="http://www.w3.org/2000/svg" viewBox="-85 -50 170 100" width="400" height="400">
  <rect fill="none" stroke="#fff" stroke-width="3" stroke-linecap="round" stroke-linejoin="round" x="-64" y="-24" width="40" height="48" rx="12"/>
  <line stroke="#fff" stroke-opacity="0.3" stroke-width="1.3" stroke-linecap="round" x1="-58" y1="-14" x2="-28" y2="-14"/>
  <line stroke="#fff" stroke-opacity="0.3" stroke-width="1.3" stroke-linecap="round" x1="-58" y1="-4" x2="-28" y2="-4"/>
  <line stroke="#fff" stroke-opacity="0.3" stroke-width="1.3" stroke-linecap="round" x1="-58" y1="6" x2="-40" y2="6"/>
  <rect fill="none" stroke="#fff" stroke-width="3" stroke-linecap="round" stroke-linejoin="round" x="24" y="-24" width="40" height="48" rx="12"/>
  <line stroke="#fff" stroke-opacity="0.3" stroke-width="1.3" stroke-linecap="round" x1="30" y1="-14" x2="60" y2="-14"/>
  <line stroke="#fff" stroke-opacity="0.3" stroke-width="1.3" stroke-linecap="round" x1="30" y1="-4" x2="60" y2="-4"/>
  <line stroke="#fff" stroke-opacity="0.3" stroke-width="1.3" stroke-linecap="round" x1="30" y1="6" x2="50" y2="6"/>
  <line stroke="#fff" stroke-width="3" stroke-linecap="round" x1="-24" y1="0" x2="-14" y2="0"/>
  <line stroke="#fff" stroke-width="3" stroke-linecap="round" x1="14" y1="0" x2="24" y2="0"/>
  <circle fill="none" stroke="#fff" stroke-width="3" cx="0" cy="0" r="14"/>
  <line stroke="#fff" stroke-width="2.5" stroke-linecap="round" x1="-5" y1="-7" x2="-5" y2="7"/>
  <line stroke="#fff" stroke-width="2.5" stroke-linecap="round" x1="5" y1="-7" x2="5" y2="7"/>
  <line stroke="#fff" stroke-width="2.2" stroke-linecap="round" x1="0" y1="-36" x2="0" y2="-26"/>
  <line stroke="#fff" stroke-width="2.2" stroke-linecap="round" x1="-76" y1="-34" x2="-68" y2="-30"/>
  <line stroke="#fff" stroke-width="2.2" stroke-linecap="round" x1="76" y1="-34" x2="68" y2="-30"/>
</svg>