<svg xmlns="http://www.w3.org/2000/svg" viewBox="-70 -85 140 170" width="400" height="400">
  <path fill="none" stroke="#fff" stroke-width="3.5" stroke-linecap="round" stroke-linejoin="round" d="M-32,-58 C-40,-58 -40,50 -40,50 C-40,58 -32,58 -32,58 L32,58 C40,58 40,50 40,50 L40,-38 L20,-58 Z"/>
  <path fill="none" stroke="#fff" stroke-width="2.5" stroke-linecap="round" stroke-linejoin="round" d="M20,-58 L20,-38 L40,-38"/>
  <line stroke="#fff" stroke-width="2" stroke-linecap="round" x1="-24" y1="-22" x2="12" y2="-22"/>
  <line stroke="#fff" stroke-width="2" stroke-linecap="round" x1="-24" y1="16" x2="24" y2="16"/>
  <line stroke="#fff" stroke-width="2" stroke-linecap="round" x1="-24" y1="32" x2="16" y2="32"/>
  <line stroke="#fff" stroke-width="3" stroke-dasharray="4,3" stroke-linecap="round" x1="-34" y1="-4" x2="34" y2="-4"/>
  <path fill="none" stroke="#fff" stroke-width="3" stroke-linecap="round" stroke-linejoin="round" d="M-52,-22 L-52,-62 L-38,-62"/>
  <path fill="none" stroke="#fff" stroke-width="3" stroke-linecap="round" stroke-linejoin="round" d="M38,-62 L52,-62 L52,-22"/>
  <path fill="none" stroke="#fff" stroke-width="3" stroke-linecap="round" stroke-linejoin="round" d="M-52,22 L-52,62 L-38,62"/>
  <path fill="none" stroke="#fff" stroke-width="3" stroke-linecap="round" stroke-linejoin="round" d="M38,62 L52,62 L52,22"/>
  <line stroke="#fff" stroke-width="2.2" stroke-linecap="round" x1="-4" y1="-76" x2="-4" y2="-68"/>
  <line stroke="#fff" stroke-width="2.2" stroke-linecap="round" x1="4" y1="-76" x2="4" y2="-68"/>
  <line stroke="#fff" stroke-width="2.2" stroke-linecap="round" x1="12" y1="-76" x2="8" y2="-68"/>
</svg>