<svg xmlns="http://www.w3.org/2000/svg" viewBox="-80 -85 160 165" width="400" height="400">
  <path fill="none" stroke="#fff" stroke-width="3.5" stroke-linecap="round" stroke-linejoin="round" d="M0,-60 C22,-60 42,-46 46,-30 C60,-26 64,-8 54,6 C62,20 56,38 42,44 C38,58 20,64 2,60 L-2,60 C-20,64 -38,58 -42,44 C-56,38 -62,20 -54,6 C-64,-8 -60,-26 -46,-30 C-42,-46 -22,-60 0,-60 Z"/>
  <path fill="none" stroke="#fff" stroke-width="2" stroke-linecap="round" d="M0,-60 C0,-34 -18,-16 -18,8 C-18,32 0,42 0,60"/>
  <path fill="none" stroke="#fff" stroke-width="2" stroke-linecap="round" d="M-46,-30 C-24,-30 -10,-16 -10,4 C-10,22 -24,32 -24,48"/>
  <path fill="none" stroke="#fff" stroke-width="2" stroke-linecap="round" d="M46,-30 C24,-30 10,-16 10,4 C10,22 24,32 24,48"/>
  <line stroke="#fff" stroke-opacity="0.3" stroke-width="1.3" stroke-linecap="round" x1="-32" y1="-44" x2="-16" y2="-44"/>
  <line stroke="#fff" stroke-opacity="0.3" stroke-width="1.3" stroke-linecap="round" x1="16" y1="-44" x2="32" y2="-44"/>
  <line stroke="#fff" stroke-opacity="0.3" stroke-width="1.3" stroke-linecap="round" x1="-48" y1="-8" x2="-38" y2="-8"/>
  <line stroke="#fff" stroke-opacity="0.3" stroke-width="1.3" stroke-linecap="round" x1="38" y1="-8" x2="48" y2="-8"/>
  <line stroke="#fff" stroke-width="2.2" stroke-linecap="round" x1="-6" y1="-76" x2="-6" y2="-68"/>
  <line stroke="#fff" stroke-width="2.2" stroke-linecap="round" x1="6" y1="-76" x2="6" y2="-68"/>
  <line stroke="#fff" stroke-width="2.2" stroke-linecap="round" x1="66" y1="4" x2="58" y2="4"/>
  <line stroke="#fff" stroke-width="2.2" stroke-linecap="round" x1="-66" y1="4" x2="-58" y2="4"/>
</svg>