<svg xmlns="http://www.w3.org/2000/svg" viewBox="-65 -90 130 185" width="400" height="400">
  <path fill="none" stroke="#fff" stroke-width="4" stroke-linecap="round" stroke-linejoin="round" d="M-38,-68 C-46,-68 -46,76 -46,76 C-46,84 -38,84 -38,84 L38,84 C46,84 46,76 46,76 L46,-48 L26,-68 Z"/>
  <path fill="none" stroke="#fff" stroke-width="3" stroke-linecap="round" stroke-linejoin="round" d="M26,-68 L26,-48 L46,-48"/>
  <line stroke="#fff" stroke-width="2.2" stroke-linecap="round" x1="-28" y1="-36" x2="14" y2="-36"/>
  <line stroke="#fff" stroke-width="2.2" stroke-linecap="round" x1="-28" y1="-20" x2="28" y2="-20"/>
  <line stroke="#fff" stroke-width="2.2" stroke-linecap="round" x1="-28" y1="-4" x2="28" y2="-4"/>
  <line stroke="#fff" stroke-width="2.2" stroke-linecap="round" x1="-28" y1="12" x2="20" y2="12"/>
  <line stroke="#fff" stroke-width="3" stroke-linecap="round" x1="-28" y1="56" x2="28" y2="56"/>
  <path fill="none" stroke="#fff" stroke-width="2.5" stroke-linecap="round" stroke-linejoin="round" d="M-26,48 C-18,36 -10,52 0,42 C10,32 18,48 26,38"/>
  <line stroke="#fff" stroke-width="2.2" stroke-linecap="round" x1="58" y1="-58" x2="50" y2="-54"/>
  <line stroke="#fff" stroke-width="2.2" stroke-linecap="round" x1="60" y1="-38" x2="52" y2="-38"/>
</svg>