<svg xmlns="http://www.w3.org/2000/svg" viewBox="-55 -90 110 185" width="400" height="400">
  <circle fill="none" stroke="#fff" stroke-width="3.5" cx="0" cy="-60" r="20"/>
  <line stroke="#fff" stroke-opacity="0.3" stroke-width="1.3" stroke-linecap="round" x1="-12" y1="-68" x2="12" y2="-68"/>
  <line stroke="#fff" stroke-opacity="0.3" stroke-width="1.3" stroke-linecap="round" x1="-14" y1="-58" x2="14" y2="-58"/>
  <line stroke="#fff" stroke-opacity="0.3" stroke-width="1.3" stroke-linecap="round" x1="-12" y1="-48" x2="12" y2="-48"/>
  <line stroke="#fff" stroke-width="3.5" stroke-linecap="round" x1="0" y1="-40" x2="0" y2="-22"/>
  <path fill="none" stroke="#fff" stroke-width="3" stroke-linecap="round" stroke-linejoin="round" d="M-10,-28 L0,-16 L10,-28"/>
  <rect fill="none" stroke="#fff" stroke-width="3.5" stroke-linecap="round" stroke-linejoin="round" x="-26" y="-16" width="52" height="36" rx="12"/>
  <line stroke="#fff" stroke-opacity="0.3" stroke-width="1.3" stroke-linecap="round" x1="-18" y1="-4" x2="18" y2="-4"/>
  <line stroke="#fff" stroke-opacity="0.3" stroke-width="1.3" stroke-linecap="round" x1="-18" y1="6" x2="18" y2="6"/>
  <line stroke="#fff" stroke-opacity="0.3" stroke-width="1.3" stroke-linecap="round" x1="-18" y1="12" x2="4" y2="12"/>
  <line stroke="#fff" stroke-width="3.5" stroke-linecap="round" x1="0" y1="20" x2="0" y2="38"/>
  <path fill="none" stroke="#fff" stroke-width="3" stroke-linecap="round" stroke-linejoin="round" d="M-10,32 L0,44 L10,32"/>
  <rect fill="none" stroke="#fff" stroke-width="3.5" stroke-linecap="round" stroke-linejoin="round" x="-26" y="44" width="52" height="36" rx="12"/>
  <line stroke="#fff" stroke-opacity="0.3" stroke-width="1.3" stroke-linecap="round" x1="-18" y1="56" x2="18" y2="56"/>
  <line stroke="#fff" stroke-opacity="0.3" stroke-width="1.3" stroke-linecap="round" x1="-18" y1="68" x2="6" y2="68"/>
  <line stroke="#fff" stroke-width="2.2" stroke-linecap="round" x1="-36" y1="-76" x2="-28" y2="-72"/>
  <line stroke="#fff" stroke-width="2.2" stroke-linecap="round" x1="36" y1="-76" x2="28" y2="-72"/>
  <line stroke="#fff" stroke-width="2.2" stroke-linecap="round" x1="40" y1="62" x2="32" y2="58"/>
</svg>