<svg xmlns="http://www.w3.org/2000/svg" viewBox="-75 -65 150 115" width="400" height="400">
  <rect fill="none" stroke="#fff" stroke-width="4" stroke-linecap="round" stroke-linejoin="round" x="-58" y="-46" width="116" height="86" rx="18"/>
  <path fill="#fff" d="M-58,-46 C-58,-56 -48,-58 -40,-58 L40,-58 C48,-58 58,-46 58,-46 L58,-28 L-58,-28 Z"/>
  <rect fill="#fff" x="-58" y="-40" width="116" height="14"/>
  <circle fill="#111" cx="-44" cy="-36" r="4"/>
  <circle fill="#111" cx="-30" cy="-36" r="4"/>
  <rect fill="none" stroke="#fff" stroke-width="2.5" stroke-linecap="round" stroke-linejoin="round" x="-40" y="-14" width="14" height="28" rx="5"/>
  <rect fill="none" stroke="#fff" stroke-width="2.5" stroke-linecap="round" stroke-linejoin="round" x="-20" y="-26" width="14" height="40" rx="5"/>
  <rect fill="none" stroke="#fff" stroke-width="2.5" stroke-linecap="round" stroke-linejoin="round" x="0" y="-36" width="14" height="50" rx="5"/>
  <path fill="none" stroke="#fff" stroke-width="3" stroke-linecap="round" stroke-linejoin="round" d="M22,-30 L38,-18 L52,-6"/>
  <circle fill="#fff" cx="52" cy="-6" r="5"/>
  <line stroke="#fff" stroke-width="2.2" stroke-linecap="round" x1="-70" y1="-36" x2="-62" y2="-32"/>
  <line stroke="#fff" stroke-width="2.2" stroke-linecap="round" x1="70" y1="-36" x2="62" y2="-32"/>
  <line stroke="#fff" stroke-width="2.2" stroke-linecap="round" x1="72" y1="-16" x2="64" y2="-16"/>
</svg>